<svg width="59" height="59" viewBox="0 0 59 59" fill="none" xmlns="http://www.w3.org/2000/svg">
<path d="M50.4335 23.9157L31.996 6.51995C31.987 6.51208 31.9785 6.50361 31.9706 6.4946C31.2918 5.87725 30.4072 5.53516 29.4896 5.53516C28.5721 5.53516 27.6875 5.87725 27.0086 6.4946L26.9833 6.51995L8.56652 23.9157C8.19085 24.2612 7.89098 24.6808 7.68588 25.1482C7.48078 25.6155 7.37492 26.1203 7.375 26.6307V47.9375C7.375 48.9155 7.7635 49.8534 8.45504 50.5449C9.14658 51.2365 10.0845 51.625 11.0625 51.625H22.125C23.103 51.625 24.0409 51.2365 24.7325 50.5449C25.424 49.8534 25.8125 48.9155 25.8125 47.9375V36.875H33.1875V47.9375C33.1875 48.9155 33.576 49.8534 34.2675 50.5449C34.9591 51.2365 35.897 51.625 36.875 51.625H47.9375C48.9155 51.625 49.8534 51.2365 50.545 50.5449C51.2365 49.8534 51.625 48.9155 51.625 47.9375V26.6307C51.6251 26.1203 51.5192 25.6155 51.3141 25.1482C51.109 24.6808 50.8091 24.2612 50.4335 23.9157ZM47.9375 47.9375H36.875V36.875C36.875 35.897 36.4865 34.9591 35.795 34.2675C35.1034 33.576 34.1655 33.1875 33.1875 33.1875H25.8125C24.8345 33.1875 23.8966 33.576 23.205 34.2675C22.5135 34.9591 22.125 35.897 22.125 36.875V47.9375H11.0625V26.6307L11.0879 26.6076L29.5 9.21874L47.9145 26.603L47.9398 26.626L47.9375 47.9375Z" fill="black"/>
</svg>
