<svg width="77" height="76" viewBox="0 0 77 76" fill="none" xmlns="http://www.w3.org/2000/svg">
<g id="magnifying-glass 1">
<path id="Vector" d="M68.6803 64.8189L53.8157 49.9573C58.1241 44.7849 60.2724 38.1506 59.8139 31.4345C59.3554 24.7184 56.3252 18.4377 51.3539 13.8988C46.3825 9.35994 39.8526 6.9124 33.1227 7.06535C26.3927 7.2183 19.9808 9.95996 15.2207 14.72C10.4607 19.48 7.71904 25.892 7.56609 32.6219C7.41314 39.3519 9.86067 45.8818 14.3995 50.8531C18.9384 55.8245 25.2192 58.8546 31.9352 59.3132C38.6513 59.7717 45.2856 57.6233 50.4581 53.315L65.3196 68.1795C65.5403 68.4002 65.8023 68.5752 66.0906 68.6946C66.3789 68.8141 66.6879 68.8755 66.9999 68.8755C67.312 68.8755 67.621 68.8141 67.9093 68.6946C68.1976 68.5752 68.4596 68.4002 68.6803 68.1795C68.9009 67.9589 69.076 67.6969 69.1954 67.4086C69.3148 67.1203 69.3763 66.8113 69.3763 66.4992C69.3763 66.1872 69.3148 65.8781 69.1954 65.5898C69.076 65.3015 68.9009 65.0396 68.6803 64.8189ZM12.3749 33.2492C12.3749 29.0216 13.6286 24.889 15.9773 21.3739C18.326 17.8588 21.6643 15.1191 25.5701 13.5013C29.4759 11.8835 33.7737 11.4602 37.92 12.2849C42.0663 13.1097 45.875 15.1455 48.8644 18.1348C51.8537 21.1242 53.8895 24.9328 54.7142 29.0792C55.539 33.2255 55.1157 37.5233 53.4979 41.4291C51.8801 45.3348 49.1404 48.6732 45.6253 51.0219C42.1102 53.3706 37.9775 54.6242 33.7499 54.6242C28.0829 54.6179 22.6497 52.3639 18.6425 48.3567C14.6353 44.3495 12.3812 38.9163 12.3749 33.2492Z" fill="#3A302B"/>
</g>
</svg>
