<svg width="80" height="80" viewBox="0 0 80 80" fill="none" xmlns="http://www.w3.org/2000/svg">
<g id="map-trifold 1">
<path id="Vector" d="M71.5375 15.5285C71.238 15.2951 70.8894 15.1331 70.5179 15.0545C70.1465 14.976 69.762 14.9831 69.3937 15.0753L50.2906 19.8503L31.1188 10.2628C30.5846 9.99641 29.9727 9.9299 29.3937 10.0753L9.39375 15.0753C8.8529 15.2105 8.37276 15.5226 8.02963 15.962C7.6865 16.4014 7.50008 16.9429 7.5 17.5003V62.5003C7.50006 62.8802 7.58668 63.2551 7.7533 63.5965C7.91992 63.9379 8.16215 64.2368 8.46158 64.4706C8.76102 64.7043 9.10979 64.8668 9.48141 64.9456C9.85302 65.0244 10.2377 65.0175 10.6062 64.9253L29.7094 60.1503L48.8812 69.7379C49.2293 69.9094 49.612 69.9992 50 70.0003C50.2044 70.0002 50.408 69.975 50.6063 69.9253L70.6063 64.9253C71.1471 64.7902 71.6272 64.4781 71.9704 64.0387C72.3135 63.5993 72.4999 63.0578 72.5 62.5003V17.5003C72.5001 17.1201 72.4134 16.7449 72.2466 16.4032C72.0799 16.0615 71.8373 15.7623 71.5375 15.5285ZM32.5 16.5441L47.5 24.0441V63.4566L32.5 55.9566V16.5441ZM12.5 19.4535L27.5 15.7035V55.5472L12.5 59.2972V19.4535ZM67.5 60.5472L52.5 64.2972V24.4535L67.5 20.7035V60.5472Z" fill="#3A302B"/>
</g>
</svg>
