<svg width="69" height="59" viewBox="0 0 69 59" fill="none" xmlns="http://www.w3.org/2000/svg">
<path d="M63.0312 0.96875H5.96875C4.59294 0.96875 3.27348 1.51529 2.30063 2.48813C1.32779 3.46098 0.78125 4.78044 0.78125 6.15625V52.8438C0.78125 54.2196 1.32779 55.539 2.30063 56.5119C3.27348 57.4847 4.59294 58.0312 5.96875 58.0312H63.0312C64.4071 58.0312 65.7265 57.4847 66.6994 56.5119C67.6722 55.539 68.2188 54.2196 68.2188 52.8438V6.15625C68.2188 4.78044 67.6722 3.46098 66.6994 2.48813C65.7265 1.51529 64.4071 0.96875 63.0312 0.96875ZM5.96875 16.5312H31.9062V42.4688H5.96875V16.5312ZM37.0938 11.3438V6.15625H47.4688V11.3438H37.0938ZM31.9062 11.3438H21.5312V6.15625H31.9062V11.3438ZM31.9062 47.6562V52.8438H21.5312V47.6562H31.9062ZM37.0938 47.6562H47.4688V52.8438H37.0938V47.6562ZM37.0938 42.4688V16.5312H63.0312V42.4688H37.0938ZM63.0312 11.3438H52.6562V6.15625H63.0312V11.3438ZM16.3438 6.15625V11.3438H5.96875V6.15625H16.3438ZM5.96875 47.6562H16.3438V52.8438H5.96875V47.6562ZM63.0312 52.8438H52.6562V47.6562H63.0312V52.8438Z" fill="#3A302B"/>
</svg>
