<svg width="61" height="57" viewBox="0 0 61 57" fill="none" xmlns="http://www.w3.org/2000/svg">
<path d="M61 19C61.0012 18.7792 60.9716 18.5593 60.912 18.3469L56.7036 3.44375C56.4207 2.4549 55.8295 1.5852 55.0181 0.964528C54.2068 0.343852 53.2188 0.00550091 52.2019 0H8.79807C7.78112 0.00550091 6.79321 0.343852 5.98186 0.964528C5.17051 1.5852 4.57926 2.4549 4.29639 3.44375L0.0909151 18.3469C0.030331 18.5592 -0.000276676 18.779 1.88431e-06 19V23.75C1.88431e-06 25.5935 0.424011 27.4118 1.23845 29.0607C2.05289 30.7096 3.23539 32.1439 4.69231 33.25V52.25C4.69231 53.5098 5.18667 54.718 6.06665 55.6088C6.94663 56.4996 8.14013 57 9.38461 57H51.6153C52.8598 57 54.0533 56.4996 54.9333 55.6088C55.8133 54.718 56.3077 53.5098 56.3077 52.25V33.25C57.7646 32.1439 58.9471 30.7096 59.7615 29.0607C60.576 27.4118 61 25.5935 61 23.75V19ZM8.79807 4.75H52.2019L55.551 16.625H5.45774L8.79807 4.75ZM23.4615 21.375H37.5384V23.75C37.5384 25.6397 36.7969 27.4519 35.4769 28.7881C34.157 30.1243 32.3667 30.875 30.5 30.875C28.6333 30.875 26.843 30.1243 25.523 28.7881C24.2031 27.4519 23.4615 25.6397 23.4615 23.75V21.375ZM18.7692 21.375V23.75C18.7692 25.6397 18.0277 27.4519 16.7077 28.7881C15.3877 30.1243 13.5975 30.875 11.7308 30.875C9.86405 30.875 8.07379 30.1243 6.75382 28.7881C5.43386 27.4519 4.69231 25.6397 4.69231 23.75V21.375H18.7692ZM51.6153 52.25H9.38461V35.3875C10.157 35.5451 10.9429 35.6247 11.7308 35.625C13.5519 35.625 15.348 35.1958 16.9769 34.3713C18.6058 33.5469 20.0227 32.3498 21.1154 30.875C22.2081 32.3498 23.6249 33.5469 25.2538 34.3713C26.8827 35.1958 28.6788 35.625 30.5 35.625C32.3211 35.625 34.1173 35.1958 35.7461 34.3713C37.375 33.5469 38.7919 32.3498 39.8846 30.875C40.9773 32.3498 42.3942 33.5469 44.023 34.3713C45.6519 35.1958 47.4481 35.625 49.2692 35.625C50.0571 35.6247 50.843 35.5451 51.6153 35.3875V52.25ZM49.2692 30.875C47.4025 30.875 45.6122 30.1243 44.2923 28.7881C42.9723 27.4519 42.2307 25.6397 42.2307 23.75V21.375H56.3077V23.75C56.3077 25.6397 55.5661 27.4519 54.2461 28.7881C52.9262 30.1243 51.1359 30.875 49.2692 30.875Z" fill="black"/>
</svg>
