<svg width="50" height="50" viewBox="0 0 50 50" fill="none" xmlns="http://www.w3.org/2000/svg">
<path d="M47.1993 21.3359H45.09L39.6642 9.12891C39.4186 8.57661 39.0182 8.10738 38.5114 7.77806C38.0046 7.44873 37.4131 7.27344 36.8087 7.27344H13.84C13.2356 7.27344 12.6441 7.44873 12.1373 7.77806C11.6305 8.10738 11.23 8.57661 10.9845 9.12891L5.55872 21.3359H3.44934C3.03494 21.3359 2.63751 21.5006 2.34449 21.7936C2.05146 22.0866 1.88684 22.484 1.88684 22.8984C1.88684 23.3128 2.05146 23.7103 2.34449 24.0033C2.63751 24.2963 3.03494 24.4609 3.44934 24.4609H5.01184V40.0859C5.01184 40.9147 5.34108 41.7096 5.92713 42.2956C6.51318 42.8817 7.30804 43.2109 8.13684 43.2109H12.8243C13.6531 43.2109 14.448 42.8817 15.034 42.2956C15.6201 41.7096 15.9493 40.9147 15.9493 40.0859V36.9609H34.6993V40.0859C34.6993 40.9147 35.0286 41.7096 35.6146 42.2956C36.2007 42.8817 36.9955 43.2109 37.8243 43.2109H42.5118C43.3406 43.2109 44.1355 42.8817 44.7215 42.2956C45.3076 41.7096 45.6368 40.9147 45.6368 40.0859V24.4609H47.1993C47.6137 24.4609 48.0112 24.2963 48.3042 24.0033C48.5972 23.7103 48.7618 23.3128 48.7618 22.8984C48.7618 22.484 48.5972 22.0866 48.3042 21.7936C48.0112 21.5006 47.6137 21.3359 47.1993 21.3359ZM13.84 10.3984H36.8087L41.67 21.3359H8.97864L13.84 10.3984ZM12.8243 40.0859H8.13684V36.9609H12.8243V40.0859ZM37.8243 40.0859V36.9609H42.5118V40.0859H37.8243ZM42.5118 33.8359H8.13684V24.4609H42.5118V33.8359ZM11.2618 29.1484C11.2618 28.734 11.4265 28.3366 11.7195 28.0436C12.0125 27.7506 12.4099 27.5859 12.8243 27.5859H15.9493C16.3637 27.5859 16.7612 27.7506 17.0542 28.0436C17.3472 28.3366 17.5118 28.734 17.5118 29.1484C17.5118 29.5628 17.3472 29.9603 17.0542 30.2533C16.7612 30.5463 16.3637 30.7109 15.9493 30.7109H12.8243C12.4099 30.7109 12.0125 30.5463 11.7195 30.2533C11.4265 29.9603 11.2618 29.5628 11.2618 29.1484ZM33.1368 29.1484C33.1368 28.734 33.3015 28.3366 33.5945 28.0436C33.8875 27.7506 34.2849 27.5859 34.6993 27.5859H37.8243C38.2387 27.5859 38.6362 27.7506 38.9292 28.0436C39.2222 28.3366 39.3868 28.734 39.3868 29.1484C39.3868 29.5628 39.2222 29.9603 38.9292 30.2533C38.6362 30.5463 38.2387 30.7109 37.8243 30.7109H34.6993C34.2849 30.7109 33.8875 30.5463 33.5945 30.2533C33.3015 29.9603 33.1368 29.5628 33.1368 29.1484Z" fill="black"/>
</svg>
