<svg width="76" height="76" viewBox="0 0 76 76" fill="none" xmlns="http://www.w3.org/2000/svg">
<path d="M49.8751 4.75C44.2077 4.7555 38.7741 7.00927 34.7667 11.0167C30.7593 15.0241 28.5056 20.4577 28.5001 26.125C28.5022 27.0602 28.5647 27.9944 28.6871 28.9216L8.05132 57.0653C7.37588 57.9788 7.05187 59.105 7.13855 60.2377C7.22522 61.3705 7.71679 62.4343 8.52335 63.2344L12.7657 67.4767C13.5658 68.2833 14.6295 68.7748 15.7623 68.8615C16.8951 68.9482 18.0212 68.6242 18.9348 67.9488L47.0815 47.307C48.0076 47.4313 48.9407 47.4957 49.8751 47.5C55.5441 47.5 60.9809 45.248 64.9895 41.2394C68.9981 37.2308 71.2501 31.794 71.2501 26.125C71.2501 20.456 68.9981 15.0192 64.9895 11.0106C60.9809 7.002 55.5441 4.75 49.8751 4.75ZM66.5001 26.125C66.5044 29.7136 65.3415 33.2064 63.1869 36.0762L39.9268 12.8131C42.3976 10.9677 45.3331 9.84595 48.405 9.57325C51.4768 9.30054 54.564 9.88765 57.3213 11.2689C60.0786 12.6502 62.3974 14.7712 64.0183 17.3948C65.6393 20.0183 66.4986 23.0411 66.5001 26.125ZM16.1263 64.125L11.8751 59.8737L30.3229 34.7344C32.4846 39.6146 36.3854 43.5155 41.2657 45.6772L16.1263 64.125ZM33.2501 26.125C33.2453 22.5372 34.4083 19.0453 36.5632 16.1767L59.8204 39.4339C57.3497 41.2783 54.4148 42.3993 51.3437 42.6717C48.2726 42.9441 45.1862 42.357 42.4295 40.9762C39.6728 39.5954 37.3544 37.4752 35.7334 34.8526C34.1123 32.2299 33.2525 29.2082 33.2501 26.125ZM32.5524 43.4447C32.9975 43.89 33.2475 44.4939 33.2475 45.1235C33.2475 45.7531 32.9975 46.357 32.5524 46.8023L30.1774 49.1773C29.9591 49.4072 29.6969 49.591 29.4064 49.7179C29.1159 49.8448 28.803 49.9123 28.486 49.9163C28.169 49.9204 27.8544 49.8609 27.5608 49.7415C27.2671 49.6221 27.0004 49.445 26.7762 49.2209C26.552 48.9967 26.375 48.73 26.2556 48.4363C26.1362 48.1427 26.0767 47.8281 26.0808 47.5111C26.0848 47.1941 26.1523 46.8812 26.2792 46.5907C26.4061 46.3002 26.5899 46.038 26.8198 45.8197L29.1948 43.4447C29.4152 43.2232 29.6772 43.0474 29.9656 42.9274C30.2541 42.8074 30.5635 42.7454 30.8759 42.7452C31.1884 42.7449 31.4978 42.8063 31.7865 42.9258C32.0752 43.0453 32.3375 43.2206 32.5583 43.4417L32.5524 43.4447Z" fill="black"/>
</svg>
