<svg width="83" height="68" viewBox="0 0 83 68" fill="none" xmlns="http://www.w3.org/2000/svg">
<path d="M79.3125 61.6857H67.5625V52.8732H76.375C76.8214 52.8732 77.2618 52.7714 77.663 52.5756C78.0641 52.3798 78.4153 52.0952 78.69 51.7434C78.9647 51.3915 79.1556 50.9817 79.2482 50.5451C79.3408 50.1084 79.3326 49.6564 79.2244 49.2234L67.4744 2.22338C67.3152 1.58821 66.9483 1.02444 66.4321 0.621616C65.9158 0.218789 65.2798 0 64.625 0C63.9702 0 63.3341 0.218789 62.8179 0.621616C62.3017 1.02444 61.9348 1.58821 61.7756 2.22338L50.0256 49.2234C49.9174 49.6564 49.9093 50.1084 50.0018 50.5451C50.0944 50.9817 50.2853 51.3915 50.56 51.7434C50.8347 52.0952 51.1859 52.3798 51.587 52.5756C51.9882 52.7714 52.4286 52.8732 52.875 52.8732H61.6875V61.6857H38.1875V55.8107H41.125C41.9041 55.8107 42.6512 55.5012 43.2021 54.9504C43.753 54.3995 44.0625 53.6523 44.0625 52.8732C44.0625 52.0942 43.753 51.347 43.2021 50.7961C42.6512 50.2452 41.9041 49.9357 41.125 49.9357H38.1875V44.0607H41.125C41.9041 44.0607 42.6512 43.7512 43.2021 43.2004C43.753 42.6495 44.0625 41.9023 44.0625 41.1232C44.0625 40.3442 43.753 39.597 43.2021 39.0461C42.6512 38.4952 41.9041 38.1857 41.125 38.1857H8.8125C8.03343 38.1857 7.28626 38.4952 6.73537 39.0461C6.18449 39.597 5.875 40.3442 5.875 41.1232C5.875 41.9023 6.18449 42.6495 6.73537 43.2004C7.28626 43.7512 8.03343 44.0607 8.8125 44.0607H11.75V49.9357H8.8125C8.03343 49.9357 7.28626 50.2452 6.73537 50.7961C6.18449 51.347 5.875 52.0942 5.875 52.8732C5.875 53.6523 6.18449 54.3995 6.73537 54.9504C7.28626 55.5012 8.03343 55.8107 8.8125 55.8107H11.75V61.6857H2.9375C2.15843 61.6857 1.41126 61.9952 0.860374 62.5461C0.309486 63.097 0 63.8442 0 64.6232C0 65.4023 0.309486 66.1495 0.860374 66.7004C1.41126 67.2512 2.15843 67.5607 2.9375 67.5607H79.3125C80.0916 67.5607 80.8387 67.2512 81.3896 66.7004C81.9405 66.1495 82.25 65.4023 82.25 64.6232C82.25 63.8442 81.9405 63.097 81.3896 62.5461C80.8387 61.9952 80.0916 61.6857 79.3125 61.6857ZM64.625 15.0529L72.6113 46.9982H56.6387L64.625 15.0529ZM17.625 44.0607H32.3125V49.9357H17.625V44.0607ZM17.625 55.8107H32.3125V61.6857H17.625V55.8107ZM36.7188 26.4357C38.7522 26.4357 40.74 25.8327 42.4307 24.703C44.1214 23.5733 45.4392 21.9676 46.2174 20.0889C46.9955 18.2103 47.1992 16.1431 46.8024 14.1487C46.4057 12.1543 45.4266 10.3224 43.9887 8.88453C42.5508 7.44667 40.7189 6.46748 38.7245 6.07078C36.7302 5.67407 34.6629 5.87767 32.7843 6.65584C30.9056 7.434 29.2999 8.75177 28.1702 10.4425C27.0405 12.1333 26.4375 14.121 26.4375 16.1545C26.4375 18.8812 27.5207 21.4963 29.4488 23.4244C31.3769 25.3525 33.992 26.4357 36.7188 26.4357ZM36.7188 11.7482C37.5902 11.7482 38.4421 12.0066 39.1667 12.4908C39.8913 12.975 40.4561 13.6631 40.7896 14.4683C41.1231 15.2734 41.2104 16.1594 41.0403 17.0141C40.8703 17.8688 40.4507 18.6539 39.8344 19.2702C39.2182 19.8864 38.4331 20.306 37.5784 20.4761C36.7236 20.6461 35.8377 20.5588 35.0326 20.2253C34.2274 19.8918 33.5392 19.3271 33.0551 18.6025C32.5709 17.8778 32.3125 17.0259 32.3125 16.1545C32.3125 14.9859 32.7767 13.8651 33.6031 13.0388C34.4294 12.2125 35.5501 11.7482 36.7188 11.7482Z" fill="black"/>
</svg>
