<svg width="50" height="49" viewBox="0 0 50 49" fill="none" xmlns="http://www.w3.org/2000/svg">
<path d="M43.4317 30.3299L34.2305 26.2893L34.2051 26.2778C33.7274 26.0776 33.2063 25.9972 32.689 26.044C32.1717 26.0908 31.6744 26.2632 31.2422 26.5457C31.1913 26.5787 31.1424 26.6145 31.0957 26.6529L26.3418 30.6246C23.3301 29.191 20.2207 26.1668 18.7578 23.2536L22.8164 18.5239C22.8555 18.4761 22.8926 18.4282 22.9278 18.3765C23.2098 17.9541 23.381 17.4699 23.426 16.967C23.4709 16.464 23.3884 15.958 23.1856 15.4939V15.471L19.0508 6.43852C18.7827 5.83227 18.3217 5.32724 17.7367 4.99883C17.1517 4.67043 16.4739 4.53625 15.8047 4.61633C13.1582 4.95762 10.7289 6.23136 8.97059 8.19964C7.2123 10.1679 6.24523 12.6961 6.25002 15.3121C6.25002 30.5098 18.8672 42.8746 34.375 42.8746C37.0444 42.8793 39.6242 41.9316 41.6326 40.2085C43.6411 38.4853 44.9408 36.1046 45.2891 33.511C45.3709 32.8554 45.2343 32.1914 44.8996 31.6181C44.5648 31.0448 44.0499 30.5929 43.4317 30.3299ZM34.375 39.8121C27.7468 39.805 21.3922 37.2215 16.7053 32.6284C12.0185 28.0353 9.38226 21.8077 9.37502 15.3121C9.36767 13.443 10.0548 11.6352 11.3081 10.2263C12.5614 8.81735 14.2951 7.90367 16.1856 7.65586C16.1848 7.6635 16.1848 7.67119 16.1856 7.67883L20.2871 16.6749L16.25 21.4103C16.209 21.4565 16.1718 21.5058 16.1387 21.5577C15.8448 21.9997 15.6724 22.5086 15.6381 23.0351C15.6039 23.5616 15.7091 24.0878 15.9434 24.5628C17.7129 28.1095 21.3594 31.6563 25.0176 33.3885C25.5058 33.616 26.0459 33.7155 26.5851 33.6772C27.1242 33.639 27.6441 33.4643 28.0938 33.1703C28.1439 33.1372 28.1922 33.1014 28.2383 33.0631L32.9863 29.0934L42.166 33.1225C42.166 33.1225 42.1817 33.1225 42.1875 33.1225C41.9377 34.9777 41.0068 36.6802 39.5689 37.9115C38.1309 39.1427 36.2845 39.8184 34.375 39.8121Z" fill="black"/>
</svg>
