<svg width="68" height="68" viewBox="0 0 68 68" fill="none" xmlns="http://www.w3.org/2000/svg">
<path d="M64.4486 25.6201L15.5736 8.62007C15.2533 8.50856 14.9109 8.47535 14.5751 8.52322C14.2393 8.5711 13.9198 8.69866 13.6434 8.89524C13.367 9.09183 13.1417 9.35172 12.9862 9.65321C12.8308 9.95469 12.7498 10.289 12.75 10.6282V57.3782C12.75 57.9418 12.9739 58.4823 13.3724 58.8808C13.7709 59.2793 14.3114 59.5032 14.875 59.5032C15.4386 59.5032 15.9791 59.2793 16.3776 58.8808C16.7761 58.4823 17 57.9418 17 57.3782V46.1396L64.4486 29.6363C64.8661 29.4918 65.2282 29.2207 65.4845 28.8608C65.7408 28.5009 65.8786 28.07 65.8786 27.6282C65.8786 27.1863 65.7408 26.7555 65.4845 26.3956C65.2282 26.0357 64.8661 25.7646 64.4486 25.6201ZM17 41.6399V13.6165L57.282 27.6282L17 41.6399Z" fill="#3B302A"/>
</svg>
