<svg width="54" height="60" viewBox="0 0 54 60" fill="none" xmlns="http://www.w3.org/2000/svg">
<path d="M27 5.625C22.6612 5.625 18.4198 7.05457 14.8122 9.73293C11.2046 12.4113 8.3928 16.2181 6.7324 20.6721C5.07201 25.126 4.63757 30.027 5.48403 34.7553C6.3305 39.4836 8.41984 43.8268 11.4879 47.2357C14.5559 50.6446 18.4648 52.9661 22.7202 53.9066C26.9757 54.8472 31.3866 54.3644 35.3951 52.5196C39.4037 50.6747 42.8298 47.5505 45.2404 43.542C47.6509 39.5336 48.9375 34.8209 48.9375 30C48.9314 23.5374 46.6181 17.3415 42.5054 12.7718C38.3926 8.20209 32.8163 5.63182 27 5.625ZM27 50.625C23.3287 50.625 19.7398 49.4154 16.6872 47.1491C13.6346 44.8828 11.2554 41.6616 9.8505 37.8928C8.44554 34.1241 8.07794 29.9771 8.79418 25.9763C9.51042 21.9754 11.2783 18.3004 13.8743 15.4159C16.4704 12.5315 19.7779 10.5671 23.3786 9.7713C26.9794 8.97548 30.7117 9.38393 34.1036 10.945C37.4954 12.506 40.3945 15.1496 42.4342 18.5414C44.4738 21.9331 45.5625 25.9208 45.5625 30C45.5569 35.4682 43.5994 40.7106 40.1195 44.5772C36.6396 48.4438 31.9214 50.6188 27 50.625ZM40.5 30C40.5 30.4973 40.3222 30.9742 40.0058 31.3258C39.6893 31.6775 39.2601 31.875 38.8125 31.875H27C26.5525 31.875 26.1232 31.6775 25.8068 31.3258C25.4903 30.9742 25.3125 30.4973 25.3125 30V16.875C25.3125 16.3777 25.4903 15.9008 25.8068 15.5492C26.1232 15.1975 26.5525 15 27 15C27.4476 15 27.8768 15.1975 28.1933 15.5492C28.5097 15.9008 28.6875 16.3777 28.6875 16.875V28.125H38.8125C39.2601 28.125 39.6893 28.3225 40.0058 28.6742C40.3222 29.0258 40.5 29.5027 40.5 30Z" fill="black"/>
</svg>
