<svg width="51" height="51" viewBox="0 0 51 51" fill="none" xmlns="http://www.w3.org/2000/svg">
<path d="M46.5255 28.3354C46.3211 28.1306 46.0647 27.9852 45.7839 27.915C45.5032 27.8448 45.2086 27.8524 44.9318 27.937C41.8928 28.8557 38.6616 28.9327 35.5823 28.1599C32.503 27.387 29.6911 25.7932 27.4462 23.5483C25.2013 21.3034 23.6075 18.4915 22.8347 15.4122C22.0618 12.333 22.1388 9.1017 23.0575 6.06276C23.1428 5.78585 23.151 5.49093 23.0812 5.20973C23.0113 4.92853 22.8662 4.67168 22.6613 4.4668C22.4564 4.26192 22.1996 4.11677 21.9184 4.04696C21.6372 3.97714 21.3423 3.98531 21.0654 4.07057C16.8639 5.35762 13.1754 7.937 10.5247 11.4417C8.20661 14.5193 6.79263 18.1824 6.44163 22.0193C6.09063 25.8563 6.8165 29.7151 8.5377 33.1623C10.2589 36.6094 12.9072 39.5083 16.1852 41.5333C19.4631 43.5583 23.2407 44.6292 27.0937 44.6255C31.5888 44.6394 35.9642 43.1781 39.5489 40.4658C43.0535 37.8152 45.6329 34.1267 46.92 29.9252C47.0042 29.6493 47.0121 29.3557 46.9426 29.0757C46.8731 28.7958 46.729 28.5399 46.5255 28.3354ZM37.6324 37.9198C34.2567 40.4624 30.0762 41.7 25.8605 41.4048C21.6447 41.1096 17.6774 39.3015 14.689 36.3133C11.7006 33.3252 9.8922 29.3581 9.59667 25.1423C9.30114 20.9266 10.5384 16.746 13.0807 13.3701C14.737 11.1828 16.8783 9.40973 19.3361 8.19042C19.1961 9.17301 19.1256 10.1643 19.125 11.1568C19.1308 16.65 21.3155 21.9165 25.1998 25.8007C29.084 29.685 34.3505 31.8697 39.8437 31.8755C40.8382 31.8752 41.8315 31.8047 42.8161 31.6644C41.5956 34.1226 39.8211 36.264 37.6324 37.9198Z" fill="black"/>
</svg>
